<svg xmlns="http://www.w3.org/2000/svg" xmlns:xlink="http://www.w3.org/1999/xlink" width="500" zoomAndPan="magnify" viewBox="0 0 375 374.999991" height="500" preserveAspectRatio="xMidYMid meet" version="1.0"><defs><g/></defs><g fill="#000000" fill-opacity="1"><g transform="translate(81.583592, 208.774981)"><g><path d="M 15.453125 -7.546875 L 15.453125 -3.53125 L 1.359375 -9.1875 L 1.359375 -12.9375 L 15.453125 -18.59375 L 15.453125 -14.59375 L 6.578125 -11.234375 L 6.578125 -10.90625 Z M 15.453125 -7.546875 "/></g></g></g><g fill="#000000" fill-opacity="1"><g transform="translate(98.813759, 208.774981)"><g/></g></g><g fill="#000000" fill-opacity="1"><g transform="translate(106.358791, 208.774981)"><g><path d="M 6.71875 0.328125 C 5.613281 0.328125 4.65625 0.125 3.84375 -0.28125 C 3.03125 -0.6875 2.40625 -1.28125 1.96875 -2.0625 C 1.53125 -2.851562 1.3125 -3.800781 1.3125 -4.90625 C 1.3125 -5.925781 1.53125 -6.78125 1.96875 -7.46875 C 2.40625 -8.164062 3.082031 -8.734375 4 -9.171875 C 4.914062 -9.617188 6.113281 -9.960938 7.59375 -10.203125 C 8.625 -10.367188 9.40625 -10.550781 9.9375 -10.75 C 10.476562 -10.945312 10.84375 -11.171875 11.03125 -11.421875 C 11.21875 -11.671875 11.3125 -11.988281 11.3125 -12.375 C 11.3125 -12.925781 11.117188 -13.347656 10.734375 -13.640625 C 10.347656 -13.929688 9.707031 -14.078125 8.8125 -14.078125 C 7.851562 -14.078125 6.941406 -13.863281 6.078125 -13.4375 C 5.210938 -13.007812 4.460938 -12.445312 3.828125 -11.75 L 3.515625 -11.75 L 1.703125 -14.484375 C 2.578125 -15.453125 3.644531 -16.207031 4.90625 -16.75 C 6.164062 -17.289062 7.539062 -17.5625 9.03125 -17.5625 C 11.3125 -17.5625 12.960938 -17.078125 13.984375 -16.109375 C 15.003906 -15.140625 15.515625 -13.765625 15.515625 -11.984375 L 15.515625 -4.5 C 15.515625 -3.726562 15.851562 -3.34375 16.53125 -3.34375 C 16.789062 -3.34375 17.046875 -3.390625 17.296875 -3.484375 L 17.515625 -3.421875 L 17.828125 -0.40625 C 17.585938 -0.25 17.253906 -0.117188 16.828125 -0.015625 C 16.398438 0.078125 15.929688 0.125 15.421875 0.125 C 14.390625 0.125 13.582031 -0.0703125 13 -0.46875 C 12.425781 -0.863281 12.015625 -1.484375 11.765625 -2.328125 L 11.4375 -2.359375 C 10.59375 -0.566406 9.019531 0.328125 6.71875 0.328125 Z M 8.09375 -2.90625 C 9.09375 -2.90625 9.890625 -3.238281 10.484375 -3.90625 C 11.085938 -4.582031 11.390625 -5.519531 11.390625 -6.71875 L 11.390625 -8.46875 L 11.09375 -8.53125 C 10.832031 -8.320312 10.488281 -8.144531 10.0625 -8 C 9.644531 -7.863281 9.039062 -7.726562 8.25 -7.59375 C 7.3125 -7.4375 6.632812 -7.164062 6.21875 -6.78125 C 5.8125 -6.40625 5.609375 -5.867188 5.609375 -5.171875 C 5.609375 -4.429688 5.828125 -3.867188 6.265625 -3.484375 C 6.703125 -3.097656 7.3125 -2.90625 8.09375 -2.90625 Z M 8.09375 -2.90625 "/></g></g></g><g fill="#000000" fill-opacity="1"><g transform="translate(124.526228, 208.774981)"><g><path d="M 6.71875 0.328125 C 5.613281 0.328125 4.65625 0.125 3.84375 -0.28125 C 3.03125 -0.6875 2.40625 -1.28125 1.96875 -2.0625 C 1.53125 -2.851562 1.3125 -3.800781 1.3125 -4.90625 C 1.3125 -5.925781 1.53125 -6.78125 1.96875 -7.46875 C 2.40625 -8.164062 3.082031 -8.734375 4 -9.171875 C 4.914062 -9.617188 6.113281 -9.960938 7.59375 -10.203125 C 8.625 -10.367188 9.40625 -10.550781 9.9375 -10.75 C 10.476562 -10.945312 10.84375 -11.171875 11.03125 -11.421875 C 11.21875 -11.671875 11.3125 -11.988281 11.3125 -12.375 C 11.3125 -12.925781 11.117188 -13.347656 10.734375 -13.640625 C 10.347656 -13.929688 9.707031 -14.078125 8.8125 -14.078125 C 7.851562 -14.078125 6.941406 -13.863281 6.078125 -13.4375 C 5.210938 -13.007812 4.460938 -12.445312 3.828125 -11.75 L 3.515625 -11.75 L 1.703125 -14.484375 C 2.578125 -15.453125 3.644531 -16.207031 4.90625 -16.75 C 6.164062 -17.289062 7.539062 -17.5625 9.03125 -17.5625 C 11.3125 -17.5625 12.960938 -17.078125 13.984375 -16.109375 C 15.003906 -15.140625 15.515625 -13.765625 15.515625 -11.984375 L 15.515625 -4.5 C 15.515625 -3.726562 15.851562 -3.34375 16.53125 -3.34375 C 16.789062 -3.34375 17.046875 -3.390625 17.296875 -3.484375 L 17.515625 -3.421875 L 17.828125 -0.40625 C 17.585938 -0.25 17.253906 -0.117188 16.828125 -0.015625 C 16.398438 0.078125 15.929688 0.125 15.421875 0.125 C 14.390625 0.125 13.582031 -0.0703125 13 -0.46875 C 12.425781 -0.863281 12.015625 -1.484375 11.765625 -2.328125 L 11.4375 -2.359375 C 10.59375 -0.566406 9.019531 0.328125 6.71875 0.328125 Z M 8.09375 -2.90625 C 9.09375 -2.90625 9.890625 -3.238281 10.484375 -3.90625 C 11.085938 -4.582031 11.390625 -5.519531 11.390625 -6.71875 L 11.390625 -8.46875 L 11.09375 -8.53125 C 10.832031 -8.320312 10.488281 -8.144531 10.0625 -8 C 9.644531 -7.863281 9.039062 -7.726562 8.25 -7.59375 C 7.3125 -7.4375 6.632812 -7.164062 6.21875 -6.78125 C 5.8125 -6.40625 5.609375 -5.867188 5.609375 -5.171875 C 5.609375 -4.429688 5.828125 -3.867188 6.265625 -3.484375 C 6.703125 -3.097656 7.3125 -2.90625 8.09375 -2.90625 Z M 8.09375 -2.90625 "/></g></g></g><g fill="#000000" fill-opacity="1"><g transform="translate(142.693665, 208.774981)"><g><path d="M 2.484375 0 L 2.484375 -17.234375 L 6.6875 -17.234375 L 6.6875 -14.671875 L 7.015625 -14.609375 C 7.429688 -15.566406 7.976562 -16.269531 8.65625 -16.71875 C 9.332031 -17.164062 10.15625 -17.390625 11.125 -17.390625 C 12.101562 -17.390625 12.847656 -17.222656 13.359375 -16.890625 L 12.625 -13.15625 L 12.296875 -13.09375 C 12.015625 -13.207031 11.742188 -13.289062 11.484375 -13.34375 C 11.222656 -13.394531 10.90625 -13.421875 10.53125 -13.421875 C 9.320312 -13.421875 8.398438 -12.992188 7.765625 -12.140625 C 7.128906 -11.296875 6.8125 -9.9375 6.8125 -8.0625 L 6.8125 0 Z M 2.484375 0 "/></g></g></g><g fill="#000000" fill-opacity="1"><g transform="translate(156.20599, 208.774981)"><g><path d="M 10.015625 0.328125 C 8.328125 0.328125 6.84375 -0.015625 5.5625 -0.703125 C 4.289062 -1.398438 3.300781 -2.414062 2.59375 -3.75 C 1.894531 -5.09375 1.546875 -6.710938 1.546875 -8.609375 C 1.546875 -10.503906 1.894531 -12.125 2.59375 -13.46875 C 3.300781 -14.8125 4.289062 -15.828125 5.5625 -16.515625 C 6.84375 -17.210938 8.328125 -17.5625 10.015625 -17.5625 C 11.703125 -17.5625 13.179688 -17.210938 14.453125 -16.515625 C 15.734375 -15.828125 16.726562 -14.8125 17.4375 -13.46875 C 18.144531 -12.125 18.5 -10.503906 18.5 -8.609375 C 18.5 -6.710938 18.144531 -5.09375 17.4375 -3.75 C 16.726562 -2.414062 15.734375 -1.398438 14.453125 -0.703125 C 13.179688 -0.015625 11.703125 0.328125 10.015625 0.328125 Z M 10.015625 -3.34375 C 12.691406 -3.34375 14.03125 -5.097656 14.03125 -8.609375 C 14.03125 -10.429688 13.6875 -11.765625 13 -12.609375 C 12.3125 -13.460938 11.316406 -13.890625 10.015625 -13.890625 C 7.335938 -13.890625 6 -12.128906 6 -8.609375 C 6 -5.097656 7.335938 -3.34375 10.015625 -3.34375 Z M 10.015625 -3.34375 "/></g></g></g><g fill="#000000" fill-opacity="1"><g transform="translate(176.232348, 208.774981)"><g><path d="M 2.484375 0 L 2.484375 -17.234375 L 6.640625 -17.234375 L 6.640625 -14.703125 L 6.96875 -14.625 C 8.039062 -16.582031 9.78125 -17.5625 12.1875 -17.5625 C 14.175781 -17.5625 15.632812 -17.019531 16.5625 -15.9375 C 17.5 -14.851562 17.96875 -13.273438 17.96875 -11.203125 L 17.96875 0 L 13.640625 0 L 13.640625 -10.671875 C 13.640625 -11.816406 13.410156 -12.640625 12.953125 -13.140625 C 12.492188 -13.648438 11.757812 -13.90625 10.75 -13.90625 C 9.507812 -13.90625 8.539062 -13.503906 7.84375 -12.703125 C 7.15625 -11.898438 6.8125 -10.640625 6.8125 -8.921875 L 6.8125 0 Z M 2.484375 0 "/></g></g></g><g fill="#000000" fill-opacity="1"><g transform="translate(196.414918, 208.774981)"><g><path d="M 4.40625 0.140625 C 3.851562 0.140625 3.363281 0.03125 2.9375 -0.1875 C 2.519531 -0.414062 2.195312 -0.726562 1.96875 -1.125 C 1.75 -1.519531 1.640625 -1.96875 1.640625 -2.46875 C 1.640625 -2.96875 1.75 -3.414062 1.96875 -3.8125 C 2.195312 -4.207031 2.519531 -4.519531 2.9375 -4.75 C 3.363281 -4.976562 3.851562 -5.09375 4.40625 -5.09375 C 4.96875 -5.09375 5.457031 -4.976562 5.875 -4.75 C 6.300781 -4.53125 6.625 -4.222656 6.84375 -3.828125 C 7.070312 -3.429688 7.1875 -2.984375 7.1875 -2.484375 C 7.1875 -1.722656 6.929688 -1.09375 6.421875 -0.59375 C 5.921875 -0.101562 5.25 0.140625 4.40625 0.140625 Z M 4.40625 0.140625 "/></g></g></g><g fill="#3a61f8" fill-opacity="1"><g transform="translate(205.251553, 208.774981)"><g><path d="M 10.015625 0.328125 C 8.328125 0.328125 6.84375 -0.015625 5.5625 -0.703125 C 4.289062 -1.398438 3.300781 -2.414062 2.59375 -3.75 C 1.894531 -5.09375 1.546875 -6.710938 1.546875 -8.609375 C 1.546875 -10.503906 1.894531 -12.125 2.59375 -13.46875 C 3.300781 -14.8125 4.289062 -15.828125 5.5625 -16.515625 C 6.84375 -17.210938 8.328125 -17.5625 10.015625 -17.5625 C 11.703125 -17.5625 13.179688 -17.210938 14.453125 -16.515625 C 15.734375 -15.828125 16.726562 -14.8125 17.4375 -13.46875 C 18.144531 -12.125 18.5 -10.503906 18.5 -8.609375 C 18.5 -6.710938 18.144531 -5.09375 17.4375 -3.75 C 16.726562 -2.414062 15.734375 -1.398438 14.453125 -0.703125 C 13.179688 -0.015625 11.703125 0.328125 10.015625 0.328125 Z M 10.015625 -3.34375 C 12.691406 -3.34375 14.03125 -5.097656 14.03125 -8.609375 C 14.03125 -10.429688 13.6875 -11.765625 13 -12.609375 C 12.3125 -13.460938 11.316406 -13.890625 10.015625 -13.890625 C 7.335938 -13.890625 6 -12.128906 6 -8.609375 C 6 -5.097656 7.335938 -3.34375 10.015625 -3.34375 Z M 10.015625 -3.34375 "/></g></g></g><g fill="#3a61f8" fill-opacity="1"><g transform="translate(225.277911, 208.774981)"><g><path d="M 4.640625 -19.296875 C 3.859375 -19.296875 3.222656 -19.53125 2.734375 -20 C 2.242188 -20.476562 2 -21.09375 2 -21.84375 C 2 -22.582031 2.242188 -23.1875 2.734375 -23.65625 C 3.222656 -24.132812 3.859375 -24.375 4.640625 -24.375 C 5.160156 -24.375 5.625 -24.265625 6.03125 -24.046875 C 6.4375 -23.828125 6.75 -23.523438 6.96875 -23.140625 C 7.195312 -22.765625 7.3125 -22.332031 7.3125 -21.84375 C 7.3125 -21.351562 7.195312 -20.914062 6.96875 -20.53125 C 6.75 -20.144531 6.4375 -19.84375 6.03125 -19.625 C 5.625 -19.40625 5.160156 -19.296875 4.640625 -19.296875 Z M 2.484375 0 L 2.484375 -17.234375 L 6.8125 -17.234375 L 6.8125 0 Z M 2.484375 0 "/></g></g></g><g fill="#3a61f8" fill-opacity="1"><g transform="translate(234.556895, 208.774981)"><g><path d="M 8.515625 0.328125 C 7.148438 0.328125 5.941406 0 4.890625 -0.65625 C 3.847656 -1.320312 3.03125 -2.320312 2.4375 -3.65625 C 1.84375 -5 1.546875 -6.648438 1.546875 -8.609375 C 1.546875 -10.578125 1.847656 -12.226562 2.453125 -13.5625 C 3.066406 -14.90625 3.910156 -15.90625 4.984375 -16.5625 C 6.066406 -17.226562 7.316406 -17.5625 8.734375 -17.5625 C 9.804688 -17.5625 10.734375 -17.375 11.515625 -17 C 12.304688 -16.632812 12.972656 -16.0625 13.515625 -15.28125 L 13.84375 -15.359375 L 13.84375 -24.15625 L 18.171875 -24.15625 L 18.171875 0 L 13.84375 0 L 13.84375 -2.234375 L 13.515625 -2.296875 C 13.035156 -1.484375 12.378906 -0.84375 11.546875 -0.375 C 10.710938 0.09375 9.703125 0.328125 8.515625 0.328125 Z M 9.921875 -3.34375 C 11.140625 -3.34375 12.101562 -3.773438 12.8125 -4.640625 C 13.519531 -5.515625 13.875 -6.835938 13.875 -8.609375 C 13.875 -10.378906 13.519531 -11.703125 12.8125 -12.578125 C 12.101562 -13.453125 11.140625 -13.890625 9.921875 -13.890625 C 8.648438 -13.890625 7.675781 -13.460938 7 -12.609375 C 6.332031 -11.765625 6 -10.429688 6 -8.609375 C 6 -6.796875 6.332031 -5.460938 7 -4.609375 C 7.675781 -3.765625 8.648438 -3.34375 9.921875 -3.34375 Z M 9.921875 -3.34375 "/></g></g></g><g fill="#000000" fill-opacity="1"><g transform="translate(255.208585, 208.774981)"><g/></g></g><g fill="#000000" fill-opacity="1"><g transform="translate(262.753617, 208.774981)"><g><path d="M 4.203125 3.265625 L 0.09375 3.265625 L 8.609375 -24.15625 L 12.734375 -24.15625 Z M 4.203125 3.265625 "/></g></g></g><g fill="#000000" fill-opacity="1"><g transform="translate(276.172214, 208.774981)"><g><path d="M 15.84375 -9.1875 L 1.75 -3.53125 L 1.75 -7.546875 L 10.640625 -10.90625 L 10.640625 -11.234375 L 1.75 -14.59375 L 1.75 -18.59375 L 15.84375 -12.9375 Z M 15.84375 -9.1875 "/></g></g></g></svg>