<?xml version="1.0" encoding="utf-8" ?>
<svg xmlns="http://www.w3.org/2000/svg" xmlns:xlink="http://www.w3.org/1999/xlink" width="1024" height="1024">
	<path fill="#FEFEFE" d="M0 0L1024 0L1024 1024L0 1024L0 0Z"/>
	<path fill="#C3C3C4" d="M319.466 389.673C326.979 389.39 342.342 388.345 348.815 390.927C351.52 392.005 353.869 393.919 354.877 396.721C355.823 399.352 355.771 403.191 354.443 405.689C352.662 409.039 350.124 411.009 346.549 412.087C340.961 412.56 323.295 413.206 318.598 411.583C315.265 410.431 312.545 408.041 311.125 404.797C309.945 402.101 309.714 398.913 310.932 396.188C312.589 392.481 315.824 390.926 319.466 389.673Z"/>
	<path fill="#627BB3" d="M347.782 210.206C355.444 210.349 369.938 208.529 376.264 212.282C378.952 213.877 380.991 216.459 381.651 219.541C382.272 222.44 381.541 225.421 379.793 227.798C377.195 231.332 373.8 232.671 369.622 233.345C361.223 233.227 347.814 235.029 340.652 230.418C338.318 228.915 336.644 226.849 336.181 224.067C335.671 221.004 336.971 216.504 338.89 214.106C341.053 211.402 344.514 210.554 347.782 210.206Z"/>
	<path fill="#C3C3C4" d="M119.043 435.581C126.891 435.143 142.565 433.698 149.206 437.8C151.605 439.282 153.264 441.442 153.867 444.207C154.649 447.798 154.677 450.925 152.676 454.062C150.221 457.909 148.462 458.523 144.123 459.442C137.54 459.611 122.353 460.577 116.687 458.633C113.71 457.611 111.233 455.53 109.956 452.625C108.722 449.816 108.741 446.581 109.847 443.736C111.544 439.369 114.964 437.317 119.043 435.581Z"/>
	<path fill="#C3C3C4" d="M120.943 210.149C128.463 209.865 143.057 208.176 149.432 211.835Q149.988 212.149 150.508 212.519Q151.029 212.888 151.51 213.309Q151.99 213.73 152.425 214.198Q152.859 214.665 153.244 215.175Q153.629 215.684 153.96 216.23Q154.291 216.776 154.564 217.353Q154.838 217.931 155.051 218.533Q155.264 219.134 155.414 219.755C156.133 222.754 155.684 225.815 154.061 228.444C152 231.782 149.206 233.048 145.542 234.009C137.911 234.126 121.935 235.746 115.545 232.242C112.527 230.587 110.154 227.845 109.321 224.466C108.598 221.533 109.289 218.348 110.992 215.877C113.432 212.339 116.874 210.932 120.943 210.149Z"/>
	<path fill="#9FB5DB" d="M229.753 389.559C239.448 389.161 249.167 389.572 258.868 389.544C265.925 389.524 273.39 388.899 280.379 389.652C282.613 389.892 284.86 390.431 286.861 391.479C289.317 392.765 291.249 394.758 292.067 397.443C293.016 400.559 292.656 404.554 291.071 407.41C289.479 410.28 287.132 411.645 284.088 412.595C273.121 412.573 234.537 413.867 226.794 410.763C224.051 409.663 221.486 407.598 220.436 404.76C219.373 401.885 219.894 398.663 221.313 396.006C223.295 392.296 225.793 390.681 229.753 389.559Z"/>
	<path fill="#627BB3" d="M181.347 482.21C193.777 481.962 206.279 482.397 218.716 482.415C226.421 482.426 234.575 481.716 242.203 482.506C244.487 482.742 246.762 483.318 248.824 484.341C251.229 485.534 253.522 487.413 254.339 490.062C255.301 493.177 254.163 496.748 252.735 499.533C251.082 502.756 248.711 503.523 245.395 504.518L201.855 504.505C195.825 504.5 189.492 505.088 183.508 504.638C181.197 504.464 178.843 503.933 176.831 502.744C174.13 501.148 172.213 498.65 171.496 495.581C170.821 492.692 171.246 489.678 172.926 487.206C175.025 484.118 177.779 482.811 181.347 482.21Z"/>
	<path fill="#627BB3" d="M118.031 390.066C127.058 389.392 191.625 389.002 195.803 390.732C198.651 391.912 200.938 394.068 202.007 396.991C203.009 399.729 202.897 403.47 201.604 406.101C200.117 409.128 196.881 410.907 193.843 411.974C183.684 413.35 169.743 412.311 159.262 412.271C150.339 412.237 141.408 412.125 132.485 412.192C129.057 412.217 125.605 412.567 122.184 412.438C120.747 412.383 119.301 412.216 117.935 411.747C114.771 410.661 111.953 408.491 110.578 405.386Q110.354 404.87 110.184 404.334Q110.013 403.798 109.899 403.247Q109.785 402.696 109.728 402.137Q109.671 401.577 109.672 401.015Q109.673 400.452 109.731 399.893Q109.79 399.333 109.905 398.783Q110.021 398.233 110.193 397.697Q110.364 397.161 110.59 396.646C112.115 393.076 114.556 391.505 118.031 390.066Z"/>
	<path fill="#9FB5DB" d="M383.351 389.592C401.712 389.054 420.151 389.329 438.522 389.308C450.829 389.294 463.46 388.692 475.729 389.592C479.326 391.658 482.049 394.605 483.075 398.725C483.796 401.617 483.377 404.809 481.816 407.363C479.911 410.481 476.939 412.242 473.437 412.972C454.816 413.177 436.178 412.836 417.555 412.852C407.167 412.861 396.517 413.574 386.164 412.975C383.992 412.849 381.842 412.467 379.831 411.616C376.742 410.309 374.062 407.897 372.973 404.665C372.153 402.23 372.046 398.97 373.326 396.666C375.643 392.495 378.909 390.772 383.351 389.592Z"/>
	<path fill="#CACBCB" d="M382.39 300.632C397.59 299.823 413.201 300.547 428.446 300.54C442.18 300.534 456.6 299.661 470.261 300.877C472.971 301.119 475.866 301.403 478.199 302.913Q478.689 303.224 479.145 303.583Q479.601 303.942 480.018 304.345Q480.436 304.749 480.81 305.192Q481.184 305.636 481.511 306.116Q481.838 306.595 482.115 307.105Q482.392 307.615 482.615 308.151Q482.839 308.686 483.007 309.242Q483.175 309.797 483.286 310.367Q483.39 310.939 483.438 311.518Q483.486 312.097 483.477 312.678Q483.468 313.259 483.402 313.836Q483.336 314.413 483.214 314.981Q483.092 315.549 482.914 316.102Q482.737 316.656 482.507 317.189Q482.276 317.722 481.995 318.231Q481.713 318.739 481.383 319.217C479.33 322.184 476.41 323.733 472.92 324.291C456.966 325.434 439.828 324.276 423.745 324.235C414.558 324.211 387.497 325.774 380.841 323.731C377.638 322.747 374.516 320.632 373.09 317.505C371.86 314.809 371.987 311.517 373.062 308.79C374.64 304.784 378.604 302.229 382.39 300.632Z"/>
	<path fill="#627BB3" d="M174.059 257.747L210.3 257.611C216.899 257.596 224.101 256.98 230.591 258.079C233.09 258.502 235.337 259.111 237.213 260.9C239.438 263.022 240.625 266.083 240.651 269.138C240.677 272.129 239.353 274.881 237.189 276.913C235.731 278.282 233.971 279.182 232.002 279.515C226.437 280.455 219.984 279.707 214.319 279.688L177.25 279.627L139.645 279.629C132.914 279.636 125.375 280.284 118.736 279.235C116.335 278.856 114.112 278.167 112.327 276.444C110.338 274.525 109.389 271.795 109.364 269.066Q109.361 268.505 109.414 267.946Q109.467 267.387 109.575 266.837Q109.683 266.286 109.845 265.748Q110.007 265.211 110.221 264.692Q110.436 264.174 110.7 263.679Q110.965 263.184 111.277 262.717Q111.589 262.251 111.946 261.818Q112.303 261.385 112.701 260.989C114.235 259.482 115.942 258.816 118.039 258.452C124.809 257.276 132.378 257.931 139.273 257.921L174.059 257.747Z"/>
	<path fill="#B2C5E3" d="M104.638 925.49C108 917.011 129.479 889.729 136.061 880.579Q160.696 845.944 185.928 811.741C196.232 797.493 206.237 782.971 216.934 769.02C218.11 767.486 219.771 765.465 221.557 764.627C222.615 764.131 223.686 763.905 224.766 764.5C225.874 765.109 226.743 766.265 227.001 767.501C227.412 769.465 226.342 771.541 225.33 773.149C222.807 777.16 219.53 780.851 216.738 784.695L194.605 814.975L144.209 884.749L123.952 912.496C120.798 916.726 117.36 920.781 114.338 925.103C140.101 925.045 165.958 924.571 191.714 925.085C199.708 911.497 210.129 898.908 219.266 886.042C229.175 872.091 238.479 857.174 249.138 843.819C250.26 842.413 251.455 840.704 253.323 840.344C254.326 840.151 254.911 840.383 255.817 840.745C256.92 841.852 258.142 843.242 258.07 844.92C257.951 847.689 221.336 899.024 216.714 905.261C211.839 911.839 205.85 918.046 201.627 925.037L291.521 924.945L315.584 924.863C319.904 924.853 324.968 924.417 329.186 925.268C321.319 926.007 312.881 925.437 304.945 925.445L257.251 925.471L104.638 925.49Z"/>
	<path fill="#9FB5DB" d="M179.459 435.589C184.821 434.959 190.444 435.392 195.843 435.431L223.311 435.531L263.253 435.49C270.605 435.461 279.847 434.307 286.909 436.078C290.184 436.899 293.47 439.31 295.042 442.325C296.436 444.999 296.573 448.084 295.576 450.916C294.097 455.122 291.344 457.119 287.444 458.93C271.528 459.811 254.144 458.794 238.042 458.76L201.189 458.75C194.467 458.768 185.54 459.847 179.051 458.177C175.963 457.383 173.218 455.119 171.772 452.294C170.416 449.644 170.317 446.134 171.309 443.347C172.693 439.457 175.923 437.335 179.459 435.589Z"/>
	<path fill="#9FB5DB" d="M181.293 210.608C204.734 209.626 229.154 210.446 252.712 210.478L291.007 210.537C296.565 210.545 302.258 210.201 307.797 210.465C309.784 210.56 311.637 210.9 313.46 211.721C316.48 213.08 318.98 215.39 320.022 218.594C320.973 221.516 320.619 224.641 319.158 227.328C317.24 230.855 314.542 232.333 310.841 233.519C302.581 234.222 294.153 233.916 285.865 233.885L248.695 233.726L207.25 233.645C199.988 233.689 192.626 234.171 185.377 233.897C182.824 233.801 180.203 233.482 177.835 232.471C175.072 231.291 172.802 229.265 171.823 226.372C170.804 223.36 171.14 218.474 172.707 215.711C174.449 212.637 178.116 211.476 181.293 210.608Z"/>
	<path fill="#627BB3" d="M122.187 345.209L227.223 345.136L261.795 345.116C268.584 345.091 275.502 344.789 282.278 345.161C284.558 345.286 287.038 345.535 288.99 346.825C291.335 348.374 292.745 350.796 293.258 353.532C293.851 356.694 293.286 360.49 291.268 363.073C288.973 366.01 285.758 366.965 282.21 367.35Q224.641 366.611 167.069 366.991C152.449 366.979 136.322 367.918 121.927 367.051C119.431 366.9 116.676 366.551 114.62 365.012C112.046 363.085 110.077 360.341 109.78 357.074C109.515 354.154 110.567 351.334 112.526 349.179C115.325 346.099 118.202 345.425 122.187 345.209Z"/>
	<path fill="#9FB5DB" d="M129.132 300.738Q201.343 300.439 273.553 300.969L319.789 300.913C327.736 300.884 336.135 300.327 344.047 301.033C346.728 301.271 349.495 302.429 351.469 304.286C353.907 306.579 355.557 309.929 355.527 313.309Q355.527 313.826 355.474 314.339Q355.421 314.853 355.316 315.359Q355.212 315.865 355.056 316.357Q354.9 316.85 354.695 317.324Q354.49 317.798 354.238 318.249Q353.986 318.7 353.69 319.123Q353.393 319.546 353.055 319.936Q352.717 320.327 352.341 320.681C347.948 324.86 341.705 324.213 336.125 324.172L185.849 324.347L143.345 324.29C135.878 324.275 127.947 324.784 120.542 323.933C117.713 323.608 115.43 322.729 113.253 320.842C110.977 318.869 109.392 316.088 109.28 313.035C109.167 309.94 110.584 307.09 112.686 304.886C117.019 300.344 123.375 300.837 129.132 300.738Z"/>
	<path d="M663.356 449.384C658.789 445.482 654.656 441.394 651.436 436.278C645.227 426.409 643.174 415.364 645.791 403.992C648.472 392.339 655.278 382.721 665.466 376.41C675.324 370.303 687.958 368.473 699.21 371.21C710.554 373.97 720.155 381.452 726.184 391.359C732.218 401.274 734.259 412.93 731.379 424.244Q731.128 425.235 730.829 426.213Q730.529 427.191 730.182 428.153Q729.835 429.115 729.441 430.059Q729.047 431.002 728.607 431.925Q728.167 432.848 727.682 433.749Q727.197 434.649 726.668 435.524Q726.139 436.4 725.568 437.248Q724.997 438.096 724.385 438.915Q723.773 439.734 723.121 440.522Q722.469 441.31 721.779 442.065Q721.089 442.82 720.363 443.54Q719.637 444.26 718.876 444.944Q718.115 445.627 717.322 446.272Q716.528 446.917 715.704 447.523Q714.88 448.128 714.027 448.692Q713.174 449.256 712.294 449.777C717.484 455.42 722.276 461.551 727.349 467.321C739.606 469.199 750.433 473.089 759.774 481.522C771.816 492.393 778.935 506.649 779.742 522.835C807.797 522.808 835.908 522.337 863.956 522.784C861.773 534.706 857.993 546.707 855.103 558.511L839.13 625.996L950.576 626.087Q951.026 637.859 950.801 649.638C945.58 650.532 939.726 650.056 934.418 650.055C923.938 650.054 913.435 649.88 902.957 650.122C902.938 654.842 903.017 659.583 902.877 664.3C902.994 675.932 902.681 687.633 903.076 699.253C902.136 774.585 903.209 849.968 903.011 925.307L947.892 925.34C955.404 925.344 963.265 925.778 970.75 925.207L971.234 926.235L970.741 926.89C962.514 927.401 954.082 927.065 945.828 927.07L900.047 927.06L761.581 927.075L295.604 927.103C270.228 927.059 57.1431 928.131 53.7967 926.71L53.2307 925.291Q78.9337 925.54 104.638 925.49L257.251 925.471L304.945 925.445C312.881 925.437 321.319 926.007 329.186 925.268C329.874 924.49 329.692 922.602 329.689 921.62L329.521 760.289C329.477 736.758 329.863 713.154 329.375 689.633C329.848 676.485 329.475 663.199 329.48 650.035C312.504 650.01 295.497 649.775 278.524 650.106C278.183 642.05 278.396 633.902 278.369 625.834C323.493 625.858 368.657 625.352 413.774 626.001C400.463 586.941 388.014 547.568 374.438 508.596L559.688 508.88C566.638 524.976 572.837 541.26 579.391 557.507C583.932 545.612 587.97 533.491 592.049 521.43C594.255 514.906 596.135 507.912 599.113 501.705Q601.226 497.349 603.93 493.333Q606.634 489.317 609.876 485.721C619.132 475.6 632.697 468.164 646.597 467.519C652.765 462.092 657.754 455.382 663.356 449.384Z"/>
	<path fill="#1D0F0C" d="M878.712 648.09C894.296 647.897 910.231 647.442 925.795 648.088C925.478 648.167 925.163 648.252 924.845 648.327C922.402 648.899 919.604 648.755 917.097 648.816C921.015 650.979 944.195 648.583 950.801 649.638C945.58 650.532 939.726 650.056 934.418 650.055C923.938 650.054 913.435 649.88 902.957 650.122C902.938 654.842 903.017 659.583 902.877 664.3C902.794 663.986 902.704 663.673 902.627 663.357C901.753 659.797 903.041 655.815 902.071 652.304L902.351 653.174L901.82 652.441C901.104 658.899 901.575 665.675 901.606 672.183L901.758 708.155C901.768 712.103 902.601 718.876 901.357 722.483C900.584 714.696 901.134 706.293 901.106 698.43L901.027 649.975C882.567 649.821 864.096 650.173 845.638 649.868C847.958 648.213 890.759 649.979 898.029 648.97C891.885 647.822 885.229 649.518 879.123 648.189C878.985 648.159 878.849 648.123 878.712 648.09Z"/>
	<path fill="#FEFEFE" d="M618.836 589.325C620.138 592.918 619.049 620.473 619.005 626.062C614.602 626.15 610.189 626.113 605.785 626.137C605.69 621.346 616.557 595.514 618.836 589.325Z"/>
	<path fill="#FEFEFE" d="M496.081 589.326L496.428 589.454C497.826 591.385 496.949 617.843 496.938 623.018L491.554 618.764C490.649 617.944 489.724 616.992 489.057 615.965C486.251 611.641 485.489 605.802 486.796 600.855C488.211 595.501 491.472 592.083 496.081 589.326Z"/>
	<path fill="#FEFEFE" d="M624.291 897.515L630.873 897.481C630.651 906.733 630.761 916.012 630.733 925.267L621.214 925.281L614.082 925.273C614.026 920.594 613.491 915.351 614.165 910.748C615.092 904.425 619.555 901.119 624.291 897.515Z"/>
	<path fill="#FEFEFE" d="M714.036 771.406Q726.405 771.337 738.773 771.436C735.948 776.901 731.598 781.859 728.334 787.135C724.859 792.752 717.642 807.974 713.94 811.184L714.036 771.406Z"/>
	<path fill="#FEFEFE" d="M613.101 770.961L621.516 770.977L621.437 896.973C618.714 897.001 615.978 896.907 613.255 896.867C612.772 881.07 613.217 865.157 613.226 849.345L613.101 770.961Z"/>
	<path fill="#FEFEFE" d="M838.797 628.026L948.92 628.024C948.9 634.623 949.131 641.338 948.755 647.921C941.197 647.952 933.314 647.525 925.795 648.088C910.231 647.442 894.296 647.897 878.712 648.09C863.867 647.791 848.989 648.013 834.14 648.049Q835.977 637.923 838.797 628.026Z"/>
	<path fill="#FEFEFE" d="M541.596 897.164C554.061 896.538 566.724 896.964 579.209 896.961C586.585 896.958 598.216 895.933 605.126 897.604C608.205 898.348 609.878 901.626 611.459 904.092C611.749 911.128 611.529 918.234 611.49 925.278C603.25 925.405 594.992 925.306 586.75 925.319L515.681 925.364C516.487 919.731 517.768 914.546 521.031 909.772C525.887 902.666 533.221 898.594 541.596 897.164Z"/>
	<path fill="#FEFEFE" d="M378.229 510.97L558.26 511.347C565.798 527.512 571.911 544.634 578.475 561.228C577.52 563.782 576.341 566.274 575.247 568.773C568.451 551.852 562.65 534.356 555.239 517.705L411.25 517.653Q399.043 517.524 386.84 517.859C389.157 528.295 394.262 540.407 397.712 550.706L420.413 619.404C443.077 619.94 465.879 619.46 488.557 619.507C491.281 621.673 493.892 623.907 496.465 626.252C469.979 627.355 443.043 626.36 416.521 626.11C411.132 611.984 406.951 597.319 402.106 582.995C394.012 559.069 385.497 535.161 378.229 510.97Z"/>
	<path fill="#FEFEFE" d="M684.266 372.66C688.114 372.331 692.055 372.334 695.87 372.992C706.785 374.873 716.296 381.307 722.591 390.345C728.979 399.514 731.516 410.346 729.46 421.371C726.873 435.245 719.635 441.83 708.468 449.462C713.645 455.598 718.714 461.902 724.251 467.717L692.25 467.736Q671.19 467.539 650.129 467.695C656.147 461.7 661.922 455.106 667.701 448.851Q665.55 447.477 663.493 445.966Q662.677 445.36 661.892 444.713Q661.107 444.067 660.355 443.382Q659.604 442.698 658.887 441.976Q658.171 441.255 657.491 440.499Q656.811 439.743 656.169 438.954Q655.528 438.165 654.927 437.346Q654.325 436.526 653.766 435.677Q653.206 434.828 652.689 433.953Q652.172 433.077 651.7 432.177Q651.227 431.276 650.8 430.354Q650.373 429.431 649.992 428.488Q649.612 427.546 649.279 426.585Q648.945 425.624 648.66 424.648Q648.375 423.672 648.139 422.683Q647.903 421.694 647.717 420.695Q647.53 419.696 647.394 418.688Q647.267 417.706 647.187 416.718Q647.108 415.73 647.076 414.74Q647.045 413.75 647.061 412.759Q647.078 411.769 647.143 410.78Q647.208 409.792 647.321 408.807Q647.434 407.823 647.594 406.845Q647.755 405.868 647.963 404.899Q648.17 403.93 648.425 402.973Q648.68 402.016 648.981 401.072Q649.282 400.128 649.628 399.2Q649.975 398.271 650.366 397.361Q650.757 396.451 651.192 395.561Q651.627 394.671 652.105 393.803Q652.582 392.935 653.102 392.091Q653.621 391.247 654.181 390.43Q654.74 389.612 655.339 388.823C662.599 379.28 672.579 374.322 684.266 372.66Z"/>
	<path fill="#FEFEFE" d="M623.999 770.996Q649.506 770.927 675.011 771.162L674.806 894.751Q649.356 894.747 623.908 895.02L623.999 770.996Z"/>
	<path fill="#FEFEFE" d="M280.567 627.997L619.05 628.573Q619.18 638.126 618.96 647.677L280.536 647.795L280.567 627.997Z"/>
	<path fill="#FEFEFE" d="M348.533 748.578L475.408 748.78L475.397 805.329C460.425 805.58 445.404 805.295 430.427 805.298L348.519 805.45L348.533 748.578Z"/>
	<path fill="#FEFEFE" d="M373.305 867.748L475.519 867.672L475.511 925.327L450.875 925.327L348.484 925.404L348.462 867.857L373.305 867.748Z"/>
	<path fill="#FEFEFE" d="M348.493 807.709C363.324 807.302 378.256 807.594 393.1 807.56L475.507 807.625L475.479 865.421L348.448 865.507C348.412 846.254 348.097 826.956 348.493 807.709Z"/>
	<path d="M412.271 831.677C413.713 831.947 414.117 831.94 415.198 832.895C415.37 834.342 415.153 834.702 414.582 836.067C413.495 835.873 412.864 835.579 411.934 834.986C411.545 833.541 411.838 833.079 412.271 831.677Z"/>
	<path fill="#FEFEFE" d="M677.345 771.344Q694.441 771.262 711.537 771.391L711.521 896.128C725.036 895.705 739.278 895.434 752.762 896.366C753.221 905.892 752.988 915.657 752.798 925.193L707.9 925.226L633.555 925.279L633.506 897.221L677.366 897.02C677.855 855.135 677.081 813.234 677.345 771.344Z"/>
	<path fill="#FEFEFE" d="M785.441 925.236C789.109 916.174 804.665 896.916 811.05 887.626Q855.447 823.202 901.036 759.615C901.063 764.549 901.201 769.511 901.03 774.443C901.622 795.808 901.027 817.289 901.123 838.673C901.254 867.465 901.915 896.352 901.423 925.136C897.303 925.727 892.781 925.379 888.613 925.36L865.22 925.295C838.65 925.334 812.001 925.804 785.441 925.236Z"/>
	<path fill="#B2C5E3" d="M785.441 925.236C789.109 916.174 804.665 896.916 811.05 887.626Q855.447 823.202 901.036 759.615C901.063 764.549 901.201 769.511 901.03 774.443C897.654 780.742 893.155 786.415 888.988 792.2Q880.663 803.779 872.488 815.463L821.819 887.939C813.11 900.263 803.927 912.371 795.452 924.837L865.457 924.854C876.692 924.846 890.482 923.888 901.423 925.136C897.303 925.727 892.781 925.379 888.613 925.36L865.22 925.295C838.65 925.334 812.001 925.804 785.441 925.236Z"/>
	<path fill="#9FB5DB" d="M390.105 520.035L553.507 520.044C558.425 531.206 562.582 542.757 566.955 554.145C569.159 559.885 571.12 565.889 573.967 571.335C573.319 574.446 572.366 577.481 571.467 580.527L534.25 580.493Q515.628 580.598 497.007 580.476L496.873 586.537Q495.877 586.939 494.898 587.379Q494.456 587.584 494.024 587.811Q493.592 588.039 493.173 588.287Q492.753 588.536 492.346 588.805Q491.94 589.074 491.547 589.364Q491.155 589.653 490.777 589.962Q490.399 590.271 490.038 590.598Q489.676 590.925 489.331 591.27Q488.987 591.615 488.66 591.977Q488.333 592.339 488.024 592.717Q487.716 593.095 487.427 593.488Q487.138 593.88 486.869 594.287Q486.6 594.694 486.351 595.114Q486.103 595.534 485.876 595.965Q485.649 596.397 485.444 596.84Q485.239 597.282 485.057 597.735Q484.875 598.187 484.715 598.648C482.476 605.126 483.597 611.229 486.501 617.221L422.552 617.331C417.431 603.209 413.015 588.854 408.24 574.613Q398.844 547.433 390.105 520.035Z"/>
	<path fill="#FEFEFE" d="M586.933 671.696C602.232 670.792 618.016 671.58 633.363 671.62L720.448 671.93C718.6 682.248 716.763 692.798 711.452 701.992Q710.938 702.894 710.384 703.772Q709.83 704.65 709.237 705.503Q708.645 706.356 708.015 707.181Q707.385 708.007 706.719 708.803Q706.053 709.6 705.353 710.366Q704.652 711.133 703.918 711.867Q703.184 712.601 702.418 713.302Q701.652 714.003 700.856 714.67Q700.06 715.336 699.234 715.966Q698.409 716.597 697.557 717.19Q696.705 717.783 695.827 718.337Q694.949 718.892 694.047 719.406Q693.146 719.921 692.222 720.396Q691.298 720.87 690.355 721.303Q689.411 721.736 688.449 722.126Q687.487 722.517 686.508 722.864C673.459 727.407 651.267 725.715 636.979 725.711L593.271 725.678C585.523 725.645 576.425 724.547 568.946 726.715C563.01 728.437 557.667 732.666 554.72 738.108C551.717 743.654 551.431 750.322 553.425 756.264C558.381 771.036 572.315 770.845 585.148 770.822L602.458 770.874C604.819 770.881 608.369 770.32 610.461 771.353L610.778 772.625L610.802 850.323C610.814 865.563 611.147 880.883 610.666 896.114C600.857 893.293 588.796 894.558 578.665 894.569L540.007 894.659L539.907 768.604L539.902 734.33C539.903 727.263 539.392 719.724 540.523 712.752Q540.779 711.211 541.136 709.691Q541.493 708.17 541.95 706.677Q542.406 705.183 542.96 703.723Q543.514 702.263 544.163 700.842Q544.812 699.422 545.554 698.047Q546.295 696.673 547.126 695.35Q547.956 694.027 548.872 692.762Q549.788 691.497 550.785 690.295C560.151 678.887 572.424 673.217 586.933 671.696Z"/>
	<path fill="#FEFEFE" d="M845.638 649.868C864.096 650.173 882.567 649.821 901.027 649.975L901.106 698.43C901.134 706.293 900.584 714.696 901.357 722.483C900.426 734.67 901.074 747.373 901.036 759.615Q855.447 823.202 811.05 887.626C804.665 896.916 789.109 916.174 785.441 925.236C775.423 925.059 765.349 925.282 755.326 925.311C755.12 914.895 755.345 904.424 755.374 894.003C741.588 893.669 727.76 893.874 713.969 893.883C714.009 871.154 714.297 848.388 713.963 825.663C713.866 820.831 713.759 816.015 713.94 811.184C717.642 807.974 724.859 792.752 728.334 787.135C731.598 781.859 735.948 776.901 738.773 771.436C742.222 771.451 745.633 771.296 749.075 771.084C753.252 770.494 757.374 769.783 761.438 768.629C785.586 761.767 803.112 743.708 815.112 722.451C820.077 711.175 822.233 699.043 824.923 687.09L833.482 649.942L845.638 649.868Z"/>
	<path fill="#B2C5E3" d="M738.773 771.436C742.222 771.451 745.633 771.296 749.075 771.084C741.083 783.015 733.705 795.377 726.1 807.557C722.713 812.983 718.521 821.508 713.963 825.663C713.866 820.831 713.759 816.015 713.94 811.184C717.642 807.974 724.859 792.752 728.334 787.135C731.598 781.859 735.948 776.901 738.773 771.436Z"/>
	<path fill="#B2C5E3" d="M855.901 723.065C856.787 723.449 856.704 723.487 857.221 724.217C856.818 726.475 854.67 728.965 853.359 730.876C840.176 750.099 825.964 768.58 812.508 787.602C808.355 793.473 793.738 816.489 789.546 820.012C788.633 820.779 787.667 821.254 786.438 821.051C784.842 820.786 783.378 819.474 782.664 818.058C782.242 817.224 782.739 816.074 783.066 815.24C785.974 807.835 792.818 800.215 797.467 793.686L823.358 757.426C830.77 747.136 837.594 736.171 845.374 726.192C846.412 724.862 847.261 723.773 848.81 723.04L855.901 723.065Z"/>
	<path fill="#FEFEFE" d="M757.552 525.171C769.258 524.525 781.287 525.052 793.037 525.01Q827.191 524.753 861.343 525.251C855.946 543.395 851.939 562.018 847.551 580.426Q837.833 620.329 828.639 660.356Q825.24 675.082 821.997 689.843C819.991 699.027 818.316 708.375 814.846 717.148C810.59 727.906 804.314 736.97 796.061 745.058C786.807 754.127 775.38 761.944 762.904 765.756C746.43 770.789 727.155 769.016 710.074 768.99L658.204 768.776L600.105 768.648C591.024 768.634 580.637 769.588 571.731 768.163C565.637 767.188 561.416 764.787 557.934 759.561Q557.661 759.146 557.408 758.718Q557.156 758.29 556.927 757.849Q556.697 757.409 556.49 756.957Q556.282 756.506 556.099 756.044Q555.915 755.583 555.755 755.112Q555.594 754.642 555.458 754.164Q555.323 753.686 555.211 753.202Q555.1 752.718 555.013 752.229Q554.927 751.739 554.865 751.246Q554.803 750.753 554.767 750.258Q554.731 749.762 554.72 749.266Q554.709 748.769 554.723 748.272Q554.737 747.776 554.777 747.28Q554.816 746.785 554.881 746.292Q554.946 745.8 555.036 745.311Q555.125 744.822 555.24 744.339C556.963 737.021 562.734 731.436 569.792 729.146C576.966 726.818 586.698 727.956 594.3 727.963L646.611 728.021C657.322 728.032 668.681 728.799 679.257 727.124Q681.585 726.759 683.866 726.171Q686.147 725.583 688.361 724.776Q690.575 723.97 692.7 722.953Q694.825 721.936 696.842 720.718C705.71 715.286 712.326 706.968 716.447 697.486C721.485 685.892 723.635 668.683 726.536 656.023L744.671 574.274C747.816 559.776 750.618 545.039 754.178 530.649C754.821 528.048 755.16 526.629 757.552 525.171Z"/>
	<path fill="#627BB3" d="M650.2 470.239L699.711 470.373C711.48 470.408 724.967 469.121 736.367 471.931C744.25 473.875 751.669 478.236 757.723 483.582C769.13 493.655 776.131 507.291 777.032 522.498C771.138 522.38 760.022 520.69 755.159 523.824C753.36 524.983 752.91 526.736 752.301 528.723C750.058 536.038 748.894 543.876 747.185 551.347C743.275 568.437 739.38 585.477 735.774 602.637C731.088 624.939 725.322 647.107 721.129 669.501L621.533 669.275L621.526 609.443C621.528 600.561 620.516 589.501 622.008 580.885C623.621 571.566 628.101 561.841 631.279 552.918C633.55 546.315 642.393 523.632 642.867 518.471C642.979 517.249 642.726 516.97 642.024 516.092C641.803 516.195 641.539 516.234 641.362 516.402C639.844 517.834 606.281 616.143 602.676 626.101L499.589 626.014C499.466 611.841 499.897 597.667 499.866 583.491Q536.645 583.027 573.425 583.452C578.443 567.45 584.656 551.885 590.084 536.031C593.815 525.134 596.732 513.129 601.62 502.723Q602.626 500.611 603.789 498.58Q604.952 496.55 606.264 494.613Q607.577 492.677 609.032 490.844Q610.487 489.012 612.076 487.295Q612.989 486.313 613.95 485.377Q614.911 484.442 615.918 483.556Q616.925 482.67 617.975 481.836Q619.025 481.001 620.116 480.221Q621.206 479.44 622.334 478.715Q623.463 477.99 624.626 477.323Q625.789 476.655 626.984 476.047Q628.18 475.438 629.404 474.891Q630.628 474.343 631.878 473.857Q633.128 473.372 634.401 472.949Q635.674 472.527 636.966 472.169Q638.259 471.811 639.568 471.518Q640.877 471.225 642.198 470.999Q643.52 470.772 644.852 470.612Q646.183 470.452 647.521 470.358Q648.859 470.265 650.2 470.239Z"/>
	<path fill="#FEFEFE" d="M331.704 650.141C349.002 649.761 366.377 650.044 383.682 650.018L492.408 650.036L572.403 650.098C587.903 650.104 603.507 649.75 618.995 650.308L619.022 669.358C595.693 669.695 573.314 665.457 554.438 682.732C543.988 692.295 537.967 705.023 537.353 719.138C538.003 741.615 537.609 764.183 537.584 786.671L537.629 895.017C527.832 899.189 520.188 903.652 515.993 913.916C514.51 917.547 513.722 921.514 513.325 925.402L477.539 925.372L477.496 746.606L346.205 746.623L345.967 925.345L331.943 925.305L331.627 724.123C331.236 699.487 331.605 674.783 331.704 650.141Z"/>
</svg>
